<?xml version="1.0" encoding="UTF-8" standalone="no"?>
<!-- Created with Inkscape (http://www.inkscape.org/) -->

<svg
   xmlns:dc="http://purl.org/dc/elements/1.1/"
   xmlns:cc="http://creativecommons.org/ns#"
   xmlns:rdf="http://www.w3.org/1999/02/22-rdf-syntax-ns#"
   xmlns:svg="http://www.w3.org/2000/svg"
   xmlns="http://www.w3.org/2000/svg"
   xmlns:sodipodi="http://sodipodi.sourceforge.net/DTD/sodipodi-0.dtd"
   xmlns:inkscape="http://www.inkscape.org/namespaces/inkscape"
   id="svg2985"
   version="1.1"
   inkscape:version="0.48.3.1 r9886"
   width="1195.723"
   height="1183.2275"
   sodipodi:docname="Food-Network-logo.png">
  <metadata
     id="metadata2991">
    <rdf:RDF>
      <cc:Work
         rdf:about="">
        <dc:format>image/svg+xml</dc:format>
        <dc:type
           rdf:resource="http://purl.org/dc/dcmitype/StillImage" />
        <dc:title></dc:title>
      </cc:Work>
    </rdf:RDF>
  </metadata>
  <defs
     id="defs2989" />
  <sodipodi:namedview
     pagecolor="#ffffff"
     bordercolor="#666666"
     borderopacity="1"
     objecttolerance="10"
     gridtolerance="10"
     guidetolerance="10"
     inkscape:pageopacity="0"
     inkscape:pageshadow="2"
     inkscape:window-width="1366"
     inkscape:window-height="709"
     id="namedview2987"
     showgrid="false"
     showguides="true"
     inkscape:guide-bbox="true"
     fit-margin-top="0"
     fit-margin-left="0"
     fit-margin-right="0"
     fit-margin-bottom="0"
     inkscape:zoom="0.18"
     inkscape:cx="1881.6887"
     inkscape:cy="1171.0604"
     inkscape:window-x="-8"
     inkscape:window-y="-8"
     inkscape:window-maximized="1"
     inkscape:current-layer="svg2985" />
  <path
     style="fill:#000000"
     d="m 568.56014,1182.9917 c -60.6068,-2.8721 -111.52082,-12.2159 -165.98777,-30.4531 -118.64191,-39.728 -223.83955,-118.6321 -296.12181,-222.11256 -6.35096,-9.091 -10.366931,-15.1765 -10.366931,-15.7122 0,-0.2709 0.7443,-0.7385 1.65386,-1.0383 5.267071,-1.7447 21.532251,-11.8489 30.555581,-18.9806 6.22212,-4.9195 19.69203,-18.2927 24.48254,-24.3126 14.55658,-18.2855 25.20558,-41.1308 32.61421,-69.9667 2.39171,-9.3094 11.55707,-56.1641 17.7679,-90.8303 2.34604,-13.0988 12.72958,-70.8489 22.73441,-126.4529 1.41012,-7.8362 4.15108,-23.0218 6.09103,-33.7462 1.94003,-10.7249 3.52726,-19.7199 3.52726,-19.9955 0,-0.3125 6.99861,-0.4698 19.1204,-0.4257 10.51607,0.074 19.21356,-0.048 19.32741,-0.1384 0.34748,-0.3486 19.05319,-63.9776 19.05319,-64.8126 0,-0.6941 -2.5383,-0.7404 -23.15321,-0.4142 -22.83032,0.3593 -23.15288,0.3513 -23.15288,-0.6398 0,-2.2124 4.21176,-30.6443 6.13056,-41.3894 6.16934,-34.5386 15.36207,-52.9497 32.80888,-65.7148 11.54594,-8.4488 30.43758,-13.3451 45.23108,-11.73 6.53272,0.7136 12.58034,2.2017 16.90299,4.1633 l 3.21288,1.4579 2.27149,-7.2154 c 14.84404,-47.1304 19.1637,-61.5774 18.53046,-61.9707 -1.04608,-0.6498 -12.80182,-3.3983 -18.73752,-4.3807 -4.33471,-0.7173 -8.55898,-0.8834 -22.38948,-0.8753 -15.04151,0.014 -17.88476,0.1391 -24.17082,1.1277 -33.94065,5.3318 -63.09052,20.0667 -86.76002,43.8469 -18.59522,18.6855 -30.90686,40.4872 -39.88753,70.6339 -3.2326,10.8515 -5.49484,21.1133 -8.72168,39.563 -1.56634,8.9542 -3.57797,20.0628 -4.47034,24.6801 l -1.62243,8.3957 -15.37541,0.1348 -15.37523,0.1333 -0.52934,1.9007 c -0.29108,1.0457 -4.59682,15.6415 -9.56837,32.4344 l -9.03912,30.5307 19.52903,0.1325 19.52893,0.1321 -0.29113,1.6494 c -0.66614,3.769 -30.89641,168.4117 -43.37487,236.2291 -4.56001,24.7847 -6.4477,32.9087 -9.91851,42.688 -5.500211,15.4965 -15.092811,29.6412 -25.505731,37.6135 -3.9244,3.0057 -11.97935,7.9855 -12.91631,7.9858 -1.02584,0 -11.59745,-22.7517 -18.79656,-40.4538 -30.08203,-73.9726 -44.6592103,-152.1473 -43.31623029,-232.2904 0.42592,-25.4106 1.89366999,-45.9328 4.94988999,-69.2068 7.6526703,-58.2772 24.4349903,-116.179 49.1859703,-169.7025 3.43536,-7.4294 12.37028,-25.4402 15.01965,-30.2791 26.23895,-47.9046 51.904231,-84.0529 86.696121,-122.1058 9.38615,-10.2649 30.87323,-31.5118 40.90069,-40.4411 62.96117,-56.068398 136.0635,-97.968498 214.4828,-122.939598 47.15415,-15.0177 93.30719,-23.5943997 145.53302,-27.0503997 14.78628,-0.9783 58.06845,-0.8159 73.4693,0.2755 29.36148,2.0768 53.9364,5.3736 80.66152,10.8161997 85.12798,17.3394 166.16938,53.8714 236.01458,106.391698 49.0634,36.895 91.35986,80.346 127.70716,131.1931 8.764,12.2596 28.3174,42.7489 27.7649,43.2962 -0.1003,0.1063 -2.8368,0.8586 -6.073,1.6772 -20.9149,5.2796 -39.9162,18.4767 -54.549,37.8764 -8.6667,11.4941 -15.8353,26.8087 -22.6948,48.5047 -4.8937,15.4807 -14.1486,54.3426 -17.3372,72.7771 -0.8601,4.9931 -1.6693,9.6073 -1.8035,10.2562 -0.21086,1.0447 -0.49536,0.8185 -2.58076,-2.035 -5.3681,-7.3393 -14.2315,-14.563 -22.648,-18.4516 -8.8657,-4.1003 -19.4367,-6.548 -32.3368,-7.4987 -26.3177,-1.9359 -52.9453,5.7432 -72.3949,20.8815 -18.1417,14.12 -31.4017,36.0225 -41.4517,68.4571 -7.0319,22.7099 -17.3029,71.8718 -20.3775,97.5044 -1.1484,9.5768 -1.5594,27.7795 -0.7939,35.3711 1.9226,19.1473 7.4056,32.72 17.5139,43.3622 13.3824,14.0873 33.996,22.2653 58.8483,23.3482 24.9357,1.0823 44.5077,-4.9142 64.0167,-19.6157 9.4636,-7.135 18.0443,-16.2386 24.1231,-25.5902 l 2.5945,-3.9846 1.9493,5.1793 c 4.381,11.6054 10.7865,20.3957 20.037,27.4887 4.48366,3.4378 16.00356,9.8183 21.05416,11.6581 8.7206,3.1755 19.5837,5.065 29.1414,5.065 4.7457,0 5.4842,-0.1155 5.7204,-0.8907 0.1479,-0.4892 4.2934,-13.8155 9.2096,-29.6104 4.9138,-15.7996 8.8316,-28.9995 8.706,-29.3378 -0.132,-0.3381 -1.1558,-0.77 -2.2769,-0.96 -6.2533,-1.0561 -14.176,-7.1686 -17.2954,-13.346 -2.833,-5.6152 -3.7053,-9.7163 -3.9932,-18.7218 -0.3746,-11.7666 -0.1844,-13.1732 8.2585,-61.065 2.0677,-11.7537 6.3009,-36.3716 9.4014,-54.7013 10.939,-64.7182 11.5729,-68.2808 14.561,-81.858 6.8275,-31.0056 14.9277,-49.3246 27.3001,-61.7547 7.4723,-7.51 16.0054,-12.8207 24.2804,-15.1146 2.0936,-0.5795 3.962,-1.0535 4.1496,-1.0535 0.425,0 5.5728,12.1431 9.674,22.8288 36.896,96.1207 47.9794,200.6894 32.1777,303.6019 -22.3216,145.4555 -99.5746,278.6471 -215.18456,371.02906 -98.2803,78.53 -216.633,123.0501 -342.71654,128.9182 -9.69337,0.4511 -41.94654,0.5646 -50.11986,0.1764 z M 467.42143,872.12414 c 1.7501,-0.3868 4.61141,-1.4272 6.36191,-2.3042 3.03998,-1.5247 10.04872,-6.7296 10.04872,-7.4642 0,-0.1935 -2.3223,-2.6824 -5.16094,-5.5279 l -5.16041,-5.1815 -2.59943,2.0658 c -3.85582,3.0665 -6.46985,4.0519 -11.48045,4.3337 -5.14859,0.2862 -7.6929,-0.3033 -11,-2.5544 -2.97198,-2.0181 -5.24286,-5.8623 -5.77249,-9.7761 l -0.38192,-2.8116 21.84977,0 21.84852,0 -0.23649,-8.0143 c -0.15627,-5.3084 -0.52639,-9.0456 -1.09409,-11.0673 -3.94293,-14.0465 -14.63641,-22.1143 -29.30741,-22.1172 -11.9762,-0.01 -21.23008,5.6319 -26.18769,15.9481 -3.17491,6.6115 -4.07809,11.1436 -4.02343,20.163 0.0585,8.9315 1.00669,13.9033 3.7389,19.5961 3.34606,6.9677 8.21161,11.3495 15.37656,13.8372 6.24087,2.1707 15.77921,2.5321 23.18037,0.8748 z m -24.80581,-43.194 c 0,-3.1199 1.89024,-7.1838 4.35034,-9.3487 2.74309,-2.4149 5.85557,-3.3689 9.82178,-3.0081 6.48504,0.5872 10.4803,4.6412 11.5332,11.7004 l 0.36044,2.4177 -13.03263,0 -13.03313,0 z m 297.55614,43.1767 c 7.24948,-1.8836 13.96954,-7.2392 17.14407,-13.6594 5.22249,-10.5733 4.92417,-33.4616 -0.56897,-43.2871 -2.93454,-5.2501 -9.29107,-10.1844 -15.78985,-12.2487 -1.34377,-0.4275 -4.86925,-0.9063 -7.83315,-1.0674 -9.76385,-0.5329 -16.91562,1.9551 -22.85262,7.9508 -5.97994,6.0291 -7.99863,11.7178 -8.49165,23.949 -0.3387,8.3775 0.40465,16.4278 1.94593,21.1181 1.453,4.4228 5.06862,9.4917 8.74021,12.2494 3.64631,2.7418 4.74536,3.3328 8.48259,4.5551 5.57062,1.8193 13.23737,1.9975 19.22344,0.4402 z m -13.6103,-15.7391 c -5.36442,-2.4045 -7.12759,-7.1317 -7.12759,-19.0853 0,-10.9078 1.42377,-15.3044 5.84132,-18.0353 2.16253,-1.3364 2.93185,-1.5263 6.07513,-1.4991 4.13307,0.073 5.98267,0.8164 8.34026,3.497 2.20871,2.517 3.17419,6.1685 3.50696,13.2644 0.5304,11.3773 -1.1423,17.8684 -5.38554,20.8531 -1.83917,1.292 -2.71111,1.5399 -5.8168,1.6611 -2.49216,0.099 -4.2242,-0.1117 -5.43374,-0.6559 z m -372.89325,-6.9757 c 0.1708,-25.9557 0.13994,-25.7371 4.07254,-29.1035 6.2217,-5.3252 16.05545,-2.4882 18.20583,5.2545 0.30696,1.1061 0.51265,10.8428 0.51448,24.3578 l 0.006,22.5183 8.9049,0 8.90504,0 -0.0122,-24.5535 c -0.0125,-26.6558 -0.1891,-28.832 -2.80247,-33.9901 -2.76282,-5.4542 -8.25795,-9.9086 -14.15917,-11.4797 -7.13921,-1.9003 -16.92995,0.065 -21.79577,4.3076 -1.00228,0.8778 -1.9638,1.599 -2.13673,1.599 -0.17298,0 -0.31454,-1.3736 -0.31454,-3.053 l 0,-3.0519 -8.39604,0 -8.39612,0 0,35.1087 0,35.1129 8.62641,0 8.62639,0 0.15133,-23.0271 z m 195.29792,15.7192 0,-7.3071 -4.2443,-0.2644 c -8.14968,-0.5079 -7.96882,0 -7.96882,-22.2504 l 0,-17.3193 6.10739,0 6.10573,0 0,-6.8695 0,-6.8699 -6.10573,0 -6.10739,0 0,-10.1775 0,-10.176 -8.90359,0 -8.90598,0 0,10.176 0,10.1775 -3.5612,0 -3.56194,0 0,6.8699 0,6.8695 3.56194,0 3.5612,0 0.0129,17.9373 c 0.0118,13.7259 0.18058,18.7586 0.74569,21.432 1.56473,7.3839 6.2093,12.3233 13.49045,14.353 1.25844,0.3493 5.32449,0.6589 9.03315,0.6824 l 6.7419,0.089 0,-7.3085 z m 70.49845,-13.684 c 3.83638,-11.545 7.1311,-21.162 7.31854,-21.3717 0.18928,-0.2099 3.53862,9.2352 7.44242,20.9871 l 7.09829,21.3695 7.37747,0.01 7.37927,0.01 1.85541,-6.2335 c 1.0188,-3.4313 5.77163,-19.0782 10.55778,-34.7816 4.78666,-15.7018 8.7713,-29.812 8.8182,-29.6322 0,0 0,0 -9.20197,0 l -9.69938,0 -5.14089,21.2885 c -2.75203,11.3904 -5.5004,20.9144 -5.63135,21.2872 -0.13098,0.3738 -3.39584,-8.9622 -7.25744,-20.7501 l -7.17,-21.8256 -6.21047,0 -6.771,0 -6.63799,21.3887 c -3.55819,11.4614 -7.00166,20.8345 -7.1624,20.9868 -0.23567,0.2212 -4.38253,-15.1924 -10.78918,-40.041 l -0.61095,-2.3345 -9.3227,0 c -5.14267,0 -9.57705,0 -9.57705,0 0,-0.215 0.86653,2.9281 1.54226,5.0196 0.67438,2.0899 4.70246,15.1378 8.94932,28.9923 4.2491,13.854 8.52667,27.7636 9.50665,30.9112 l 1.78347,5.7249 7.28872,0 7.28941,0 6.97556,-20.9911 z m 188.61406,-2.2894 c 0.1396,-21.5591 0.2184,-23.4123 1.0972,-25.0609 3.7517,-7.0522 12.2742,-8.6559 18.0258,-3.3965 l 1.1648,1.0635 6.725,-6.7404 6.7222,-6.7437 -1.7816,-1.5383 c -0.9781,-0.847 -3.237,-2.2451 -5.0137,-3.1083 -2.6896,-1.2978 -4.0381,-1.6062 -7.9538,-1.8096 -2.861,-0.1505 -5.7909,0 -7.4479,0.3833 -3.4804,0.8096 -8.6702,3.3044 -10.1623,4.892 -0.6313,0.6739 -1.3397,1.2235 -1.5696,1.2235 -0.229,0 -0.4189,-1.3805 -0.4189,-3.0646 l 0,-3.065 -8.5236,0.1391 -8.5239,0.138 -0.1283,34.9839 -0.134,34.9853 8.8844,0 8.8841,0 z m 77.7528,12.9152 0,-10.3684 3.6858,-4.0983 c 3.0941,-3.4415 3.7684,-3.9623 4.1651,-3.2468 0.2596,0.4693 3.9674,6.7787 8.2468,14.0208 4.2765,7.2424 7.8403,13.3733 7.9268,13.6219 0.1,0.2548 4.9777,0.3964 11.1215,0.3196 l 10.9725,-0.1381 -13.1193,-20.3537 c -7.2156,-11.1955 -13.1289,-20.6291 -13.1406,-20.9603 -0.019,-0.3344 5.4834,-6.7945 12.1958,-14.3522 6.7195,-7.562 12.2113,-13.872 12.2113,-14.0238 0,-0.1538 -4.749,-0.2664 -10.5524,-0.2523 l -10.5632,0.048 -6.6859,8.2438 c -3.6755,4.5368 -8.8854,10.9619 -11.5743,14.2805 l -4.8899,6.0359 0,-27.0267 0,-27.0257 -8.6514,0 -8.6514,0 0,47.8334 0,47.8339 8.6514,0 8.6514,0 0,-10.3681 z M 403.94196,721.83544 c 43.57145,-6.818 80.21384,-31.8593 100.9518,-68.9876 11.45596,-20.5134 20.39238,-53.4757 25.72915,-94.9016 2.74308,-21.2883 2.82326,-39.4117 0.23289,-52.6669 -4.36708,-22.3752 -16.48332,-40.7634 -35.03986,-53.1829 -12.0293,-8.0504 -29.17296,-13.892 -46.18333,-15.7403 -7.22442,-0.7854 -25.50945,-0.6673 -33.03079,0.2127 -49.07051,5.7419 -90.53662,36.4658 -109.89307,81.4298 -5.46274,12.6888 -11.07753,31.6702 -14.9298,50.4652 -8.54214,41.6814 -10.00421,70.4374 -4.63934,91.2598 3.6408,14.1352 10.96635,26.9103 21.42094,37.3655 6.45082,6.4508 12.90714,11.0657 21.34295,15.2573 10.54279,5.2401 21.52054,8.5329 33.0754,9.9273 2.51909,0.302 5.26688,0.6416 6.10641,0.7529 0.83962,0.1154 7.48014,0.1349 14.75691,0.087 10.34058,-0.1251 14.73058,-0.3974 20.09974,-1.2357 z m -22.26876,-51.49 c -7.29443,-1.2143 -13.11313,-4.197 -18.19231,-9.3189 -4.27279,-4.3097 -6.78136,-9.0225 -8.7232,-16.3874 -1.80373,-6.8394 -2.22037,-20.7044 -0.97068,-32.2819 1.37735,-12.7622 6.48742,-40.9081 10.20157,-56.1933 6.69448,-27.5505 15.41617,-44.6553 28.24961,-55.4011 7.15751,-5.9955 12.70748,-9.0564 20.09946,-11.0915 5.52229,-1.5198 20.53567,-1.6884 25.69845,-0.2901 5.41588,1.4658 10.42361,4.2177 14.25456,7.8333 4.2293,3.9906 6.16635,6.9113 8.11252,12.2444 5.05517,13.8548 4.62317,30.102 -1.75351,65.9782 -6.92811,38.9818 -15.47062,62.629 -27.48953,76.0997 -9.48069,10.6242 -19.45043,16.4755 -31.73654,18.6263 -4.61348,0.8095 -13.44922,0.8999 -17.7504,0.1823 z m 285.02607,51.4718 c 32.74779,-5.0174 63.65962,-21.7623 84.46289,-45.7544 20.68261,-23.8552 31.22438,-50.6901 39.48038,-100.5615 3.4096,-20.6018 4.6113,-32.8143 4.6113,-46.9178 0,-11.8784 -0.5395,-17.8266 -2.3645,-26.1045 -2.9502,-13.3557 -8.4571,-24.4538 -17.556,-35.3639 -13.92175,-16.6993 -34.70015,-27.0699 -61.1427,-30.5152 -7.08228,-0.922 -25.8945,-1.0562 -33.32232,-0.2356 -11.42079,1.2596 -25.03656,4.4538 -34.96525,8.2035 -11.70133,4.419 -26.87013,13.1724 -37.40055,21.5867 -5.56572,4.446 -16.12387,15.0078 -20.54557,20.5504 -15.89259,19.9275 -26.15444,45.0829 -33.83341,82.9427 -2.56289,12.6353 -4.82948,26.6895 -6.23703,38.6743 -1.48211,12.5972 -1.61667,32.0571 -0.2869,40.7091 2.18433,14.1925 6.36832,25.316 13.50444,35.8966 14.38941,21.3391 36.47429,33.8057 66.73569,37.6698 8.18694,1.0449 29.77578,0.6137 38.85953,-0.7802 z m -22.31639,-51.4493 c -4.71554,-0.7895 -9.60474,-2.6917 -13.34245,-5.1922 -15.45714,-10.3359 -18.8843,-30.4488 -12.07379,-70.8453 8.68863,-51.5296 17.41204,-75.6258 32.83298,-90.7054 7.23735,-7.0752 14.88617,-11.6946 23.10971,-13.9546 5.54163,-1.5235 20.56533,-1.6879 25.66171,-0.2806 21.4698,5.928 29.15995,24.7275 24.7176,60.4136 -0.95318,7.6622 -4.82209,30.8666 -6.61752,39.6913 -2.88978,14.2029 -7.67566,30.4183 -12.01414,40.6937 -9.56502,22.6472 -25.09978,36.5491 -44.66414,39.9747 -4.55492,0.7971 -13.43808,0.9018 -17.60996,0.2048 z m 258.23646,0.8084 c -12.9769,-2.8637 -21.9693,-11.4532 -25.4131,-24.2912 -1.8157,-6.7708 -2.2202,-11.6202 -1.9079,-22.9901 0.3806,-13.945 1.9816,-25.109 7.5378,-52.4658 8.7529,-43.0914 18.7904,-63.0991 38.149,-76.051 8.3509,-5.5832 16.135,-7.8089 27.4331,-7.8387 9.0863,-0.048 13.2602,0.8222 19.6947,3.9974 7.8839,3.8914 12.9812,9.8854 15.932,18.7128 2.3152,6.9222 2.7961,10.8429 2.7431,22.2531 -0.097,11.6636 -0.5917,16.6157 -4.0233,37.1902 -3.831,22.9716 -6.4569,34.3342 -11.5352,49.822 -6.8722,20.9797 -16.023,34.7184 -29.1522,43.7489 -3.7581,2.5858 -11.3711,5.9853 -16.069,7.1743 -5.6302,1.4258 -18.4428,1.8288 -23.389,0.7381 z m 243.23626,-359.0095 0,-14.7565 -4.327,0 -4.3237,0 0,-2.0344 0,-2.0359 10.9385,0 10.9439,0 0,2.0359 0,2.0344 -4.3272,0 -4.323,0 0,14.7565 0,14.756 -2.2937,0 -2.2878,0 z m 18.8276,-2.0064 0,-16.8204 3.2408,0 3.2422,0 4.414,13.4839 c 2.4297,7.4159 4.5104,13.485 4.6279,13.485 0.1157,0 2.1977,-6.0691 4.6244,-13.485 l 4.4186,-13.4839 3.2365,0 3.2354,0 0,16.7917 0,16.7911 -2.2825,0 -2.6593,-0.1287 0,-12.731 0.1061,-13.0968 -4.3811,12.8517 -4.3826,12.8511 -1.9278,0 -1.9271,0 -4.3747,-12.9758 -4.3763,-12.9741 -0.1123,13.3935 0,12.6814 -2.5586,0.062 -2.1636,-0.062 z"
     id="path2995"
     inkscape:connector-curvature="0"
     sodipodi:nodetypes="ssssssssssssscssssssscssssssssscccsscccsssscssssssssssssscsssscssssssssssscssssssccssssssssssssscssscssssccccccsssscsccscccsssssssssssscsscssscccssscccssscsscccccccccccsscccccccccccccccccccsscccccccscccsssscssscccscccssssscccccscsccccssccsscccccccsccscscscscssccssccccccccccccssssssssssssssccsssssssscsssssssssssssssssssssssssssssssssssssscsssssssscccccccccccccccccccccssscccccccccccccccccccc" />
</svg>
